<mxfile host="65bd71144e">
    <diagram id="RpEnmyTD5lqjoRYbzPlh" name="Page-1">
        <mxGraphModel dx="1775" dy="825" grid="1" gridSize="10" guides="1" tooltips="1" connect="1" arrows="1" fold="1" page="1" pageScale="1" pageWidth="1100" pageHeight="850" math="0" shadow="0">
            <root>
                <mxCell id="0"/>
                <mxCell id="1" parent="0"/>
                <mxCell id="9" style="edgeStyle=none;html=1;strokeWidth=3;fillColor=#a20025;strokeColor=#990000;" parent="1" edge="1">
                    <mxGeometry relative="1" as="geometry">
                        <mxPoint x="381" y="315" as="targetPoint"/>
                        <mxPoint x="381" y="215" as="sourcePoint"/>
                    </mxGeometry>
                </mxCell>
                <mxCell id="12" style="edgeStyle=none;html=1;strokeWidth=3;fillColor=#a20025;strokeColor=#990000;" parent="1" edge="1">
                    <mxGeometry relative="1" as="geometry">
                        <mxPoint x="601" y="95" as="targetPoint"/>
                        <mxPoint x="501" y="95" as="sourcePoint"/>
                    </mxGeometry>
                </mxCell>
                <mxCell id="16" style="edgeStyle=none;html=1;strokeWidth=3;fillColor=#76608a;strokeColor=#00CCCC;" parent="1" edge="1">
                    <mxGeometry relative="1" as="geometry">
                        <mxPoint x="601" y="165" as="targetPoint"/>
                        <mxPoint x="501" y="165" as="sourcePoint"/>
                    </mxGeometry>
                </mxCell>
                <mxCell id="2" value="&lt;font style=&quot;font-size: 16px;&quot;&gt;&lt;b&gt;NestJS&lt;br&gt;(backend)&lt;/b&gt;&lt;/font&gt;" style="whiteSpace=wrap;html=1;aspect=fixed;fillColor=#a20025;strokeWidth=2;fontColor=#ffffff;strokeColor=#6F0000;" parent="1" vertex="1">
                    <mxGeometry x="341" y="55" width="148" height="148" as="geometry"/>
                </mxCell>
                <mxCell id="6" style="edgeStyle=none;html=1;strokeWidth=3;fillColor=#60a917;strokeColor=#2D7600;" parent="1" edge="1">
                    <mxGeometry relative="1" as="geometry">
                        <mxPoint x="331" y="95" as="targetPoint"/>
                        <mxPoint x="221" y="95" as="sourcePoint"/>
                    </mxGeometry>
                </mxCell>
                <mxCell id="17" style="edgeStyle=none;html=1;strokeWidth=3;startArrow=classic;startFill=1;fillColor=#647687;strokeColor=#314354;" parent="1" edge="1">
                    <mxGeometry relative="1" as="geometry">
                        <mxPoint x="331" y="165" as="targetPoint"/>
                        <mxPoint x="221" y="165" as="sourcePoint"/>
                    </mxGeometry>
                </mxCell>
                <mxCell id="3" value="&lt;font style=&quot;font-size: 16px;&quot;&gt;&lt;b&gt;NextJS&lt;br&gt;(frontend)&lt;/b&gt;&lt;/font&gt;" style="whiteSpace=wrap;html=1;aspect=fixed;fillColor=#1ba1e2;strokeWidth=2;fontColor=#ffffff;strokeColor=#006EAF;" parent="1" vertex="1">
                    <mxGeometry x="61" y="55" width="148" height="148" as="geometry"/>
                </mxCell>
                <mxCell id="13" style="edgeStyle=none;html=1;strokeWidth=3;fillColor=#0050ef;strokeColor=#001DBC;" parent="1" edge="1">
                    <mxGeometry relative="1" as="geometry">
                        <mxPoint x="771" y="95" as="targetPoint"/>
                        <mxPoint x="881" y="95" as="sourcePoint"/>
                    </mxGeometry>
                </mxCell>
                <mxCell id="15" style="edgeStyle=none;html=1;strokeWidth=3;fillColor=#f0a30a;strokeColor=#BD7000;" parent="1" edge="1">
                    <mxGeometry relative="1" as="geometry">
                        <mxPoint x="771" y="165" as="targetPoint"/>
                        <mxPoint x="881" y="165" as="sourcePoint"/>
                    </mxGeometry>
                </mxCell>
                <mxCell id="4" value="&lt;font style=&quot;font-size: 16px;&quot;&gt;&lt;b&gt;Golang&lt;br&gt;(trade book miscroservice)&lt;/b&gt;&lt;/font&gt;" style="whiteSpace=wrap;html=1;aspect=fixed;fillColor=#0050ef;strokeWidth=2;fontColor=#ffffff;strokeColor=#001DBC;" parent="1" vertex="1">
                    <mxGeometry x="891" y="55" width="148" height="148" as="geometry"/>
                </mxCell>
                <mxCell id="5" value="&lt;font style=&quot;font-size: 16px;&quot;&gt;&lt;b&gt;Mongo&lt;br&gt;(Database)&lt;/b&gt;&lt;/font&gt;" style="whiteSpace=wrap;html=1;aspect=fixed;fillColor=#008a00;strokeWidth=2;fontColor=#ffffff;strokeColor=#005700;" parent="1" vertex="1">
                    <mxGeometry x="341" y="326" width="148" height="148" as="geometry"/>
                </mxCell>
                <mxCell id="10" value="&lt;font color=&quot;#ffffff&quot; style=&quot;font-size: 16px;&quot;&gt;&lt;b&gt;Apacha Kafka&lt;br&gt;(message broker)&lt;/b&gt;&lt;/font&gt;" style="whiteSpace=wrap;html=1;aspect=fixed;fillColor=#e3c800;strokeWidth=2;strokeColor=#B09500;fontColor=#000000;" parent="1" vertex="1">
                    <mxGeometry x="611" y="55" width="148" height="148" as="geometry"/>
                </mxCell>
                <mxCell id="19" value="&lt;font color=&quot;#2d7600&quot;&gt;&lt;font style=&quot;font-size: 16px;&quot;&gt;1 - NextJS frontend will re&lt;/font&gt;quest an order (BUY or SELL) to the NestJS backend&lt;/font&gt;" style="text;strokeColor=none;align=left;fillColor=none;html=1;verticalAlign=middle;whiteSpace=wrap;rounded=0;fontSize=16;fontStyle=1" parent="1" vertex="1">
                    <mxGeometry x="61" y="515" width="620" height="30" as="geometry"/>
                </mxCell>
                <mxCell id="20" value="2 - NestJS application will send the order data to MongoDB and to the Apache Kafka's &quot;input&quot; topic" style="text;strokeColor=none;align=left;fillColor=none;html=1;verticalAlign=middle;whiteSpace=wrap;rounded=0;fontSize=16;fontColor=#990000;fontStyle=1" parent="1" vertex="1">
                    <mxGeometry x="61" y="565" width="620" height="30" as="geometry"/>
                </mxCell>
                <mxCell id="21" value="&lt;font style=&quot;font-size: 16px;&quot;&gt;3 - The Golang microservice is going to read from the Apacha Kafka's &quot;input&quot; topic and the trade book algorithm is going to look for matching orders.&lt;/font&gt;" style="text;strokeColor=none;align=left;fillColor=none;html=1;verticalAlign=middle;whiteSpace=wrap;rounded=0;fontSize=12;fontStyle=1;fontColor=#001DBC;" parent="1" vertex="1">
                    <mxGeometry x="61" y="615" width="820" height="30" as="geometry"/>
                </mxCell>
                <mxCell id="23" value="4 - Golang microservice is going to publish the created transactions to the Apache Kafka's &quot;output&quot; topic" style="text;strokeColor=none;align=left;fillColor=none;html=1;verticalAlign=middle;whiteSpace=wrap;rounded=0;fontSize=16;fontColor=#BD7000;fontStyle=1" parent="1" vertex="1">
                    <mxGeometry x="61" y="665" width="800" height="30" as="geometry"/>
                </mxCell>
                <mxCell id="24" value="5 - The NestJS backend will read from the Apache Kafka's &quot;output&quot; topic and will update the orders' status in the database" style="text;strokeColor=none;align=left;fillColor=none;html=1;verticalAlign=middle;whiteSpace=wrap;rounded=0;fontSize=16;fontColor=#00CCCC;fontStyle=1" parent="1" vertex="1">
                    <mxGeometry x="61" y="715" width="800" height="30" as="geometry"/>
                </mxCell>
                <mxCell id="25" value="6 - The NextJS frontend will connect to the NestJS through HTTP (now for SSE) and receive the updates" style="text;strokeColor=none;align=left;fillColor=none;html=1;verticalAlign=middle;whiteSpace=wrap;rounded=0;fontSize=16;fontStyle=1;fontColor=#314354;" parent="1" vertex="1">
                    <mxGeometry x="61" y="765" width="800" height="30" as="geometry"/>
                </mxCell>
                <mxCell id="28" style="edgeStyle=none;html=1;strokeWidth=3;fillColor=#76608a;strokeColor=#00CCCC;sourcePerimeterSpacing=0;" parent="1" edge="1">
                    <mxGeometry relative="1" as="geometry">
                        <mxPoint x="451" y="315" as="targetPoint"/>
                        <mxPoint x="451" y="215" as="sourcePoint"/>
                    </mxGeometry>
                </mxCell>
                <mxCell id="29" value="1" style="text;strokeColor=none;align=center;fillColor=none;html=1;verticalAlign=middle;whiteSpace=wrap;rounded=0;fontStyle=1;fontColor=#2D7600;" vertex="1" parent="1">
                    <mxGeometry x="261" y="70" width="20" height="16" as="geometry"/>
                </mxCell>
                <mxCell id="30" value="2" style="text;strokeColor=none;align=center;fillColor=none;html=1;verticalAlign=middle;whiteSpace=wrap;rounded=0;fontStyle=1;fontColor=#990000;" vertex="1" parent="1">
                    <mxGeometry x="541" y="70" width="20" height="16" as="geometry"/>
                </mxCell>
                <mxCell id="31" value="3" style="text;strokeColor=none;align=center;fillColor=none;html=1;verticalAlign=middle;whiteSpace=wrap;rounded=0;fontStyle=1;fontColor=#001DBC;" vertex="1" parent="1">
                    <mxGeometry x="811" y="70" width="20" height="16" as="geometry"/>
                </mxCell>
                <mxCell id="32" value="6" style="text;strokeColor=none;align=center;fillColor=none;html=1;verticalAlign=middle;whiteSpace=wrap;rounded=0;fontStyle=1;fontColor=#314354;" vertex="1" parent="1">
                    <mxGeometry x="261" y="140" width="20" height="16" as="geometry"/>
                </mxCell>
                <mxCell id="33" value="5" style="text;strokeColor=none;align=center;fillColor=none;html=1;verticalAlign=middle;whiteSpace=wrap;rounded=0;fontStyle=1;fontColor=#00CCCC;" vertex="1" parent="1">
                    <mxGeometry x="541" y="140" width="20" height="16" as="geometry"/>
                </mxCell>
                <mxCell id="34" value="4" style="text;strokeColor=none;align=center;fillColor=none;html=1;verticalAlign=middle;whiteSpace=wrap;rounded=0;fontStyle=1;fontColor=#BD7000;" vertex="1" parent="1">
                    <mxGeometry x="811" y="140" width="20" height="16" as="geometry"/>
                </mxCell>
                <mxCell id="35" value="2" style="text;strokeColor=none;align=center;fillColor=none;html=1;verticalAlign=middle;whiteSpace=wrap;rounded=0;fontStyle=1;fontColor=#990000;" vertex="1" parent="1">
                    <mxGeometry x="350" y="260" width="20" height="16" as="geometry"/>
                </mxCell>
                <mxCell id="36" value="5" style="text;strokeColor=none;align=center;fillColor=none;html=1;verticalAlign=middle;whiteSpace=wrap;rounded=0;fontStyle=1;fontColor=#00CCCC;" vertex="1" parent="1">
                    <mxGeometry x="461" y="260" width="20" height="16" as="geometry"/>
                </mxCell>
            </root>
        </mxGraphModel>
    </diagram>
</mxfile>